<mxfile host="app.diagrams.net" modified="2023-10-16T08:43:51.956Z" agent="Mozilla/5.0 (Windows NT 10.0; Win64; x64) AppleWebKit/537.36 (KHTML, like Gecko) Chrome/117.0.0.0 Safari/537.36" etag="-qjGNSX-D93hLWKT3msy" version="22.0.4" type="device">
  <diagram name="第 1 页" id="309FDQ7UF2uouPhET5E3">
    <mxGraphModel dx="1477" dy="617" grid="1" gridSize="10" guides="1" tooltips="1" connect="1" arrows="1" fold="1" page="1" pageScale="1" pageWidth="827" pageHeight="1169" math="0" shadow="0">
      <root>
        <mxCell id="0" />
        <mxCell id="1" parent="0" />
        <mxCell id="GTTm0Ar-5-4vAVj9Qluw-1" value="" style="rounded=0;whiteSpace=wrap;html=1;" vertex="1" parent="1">
          <mxGeometry x="81" y="50" width="470" height="290" as="geometry" />
        </mxCell>
        <mxCell id="GTTm0Ar-5-4vAVj9Qluw-2" value="" style="rounded=0;whiteSpace=wrap;html=1;" vertex="1" parent="1">
          <mxGeometry x="141" y="70" width="350" height="80" as="geometry" />
        </mxCell>
        <mxCell id="GTTm0Ar-5-4vAVj9Qluw-3" value="分數分析" style="rounded=1;whiteSpace=wrap;html=1;" vertex="1" parent="1">
          <mxGeometry x="271.5" y="215" width="89" height="40" as="geometry" />
        </mxCell>
        <mxCell id="GTTm0Ar-5-4vAVj9Qluw-4" value="姓名學介紹" style="rounded=1;whiteSpace=wrap;html=1;" vertex="1" parent="1">
          <mxGeometry x="152" y="215" width="89" height="40" as="geometry" />
        </mxCell>
        <mxCell id="GTTm0Ar-5-4vAVj9Qluw-8" value="取名" style="rounded=1;whiteSpace=wrap;html=1;" vertex="1" parent="1">
          <mxGeometry x="390" y="215" width="89" height="40" as="geometry" />
        </mxCell>
        <mxCell id="GTTm0Ar-5-4vAVj9Qluw-9" value="" style="rounded=0;whiteSpace=wrap;html=1;" vertex="1" parent="1">
          <mxGeometry x="82.5" y="305" width="469" height="40" as="geometry" />
        </mxCell>
        <mxCell id="GTTm0Ar-5-4vAVj9Qluw-10" value="" style="endArrow=classic;html=1;rounded=0;" edge="1" parent="1">
          <mxGeometry width="50" height="50" relative="1" as="geometry">
            <mxPoint x="450" y="236" as="sourcePoint" />
            <mxPoint x="600" y="236" as="targetPoint" />
          </mxGeometry>
        </mxCell>
        <mxCell id="GTTm0Ar-5-4vAVj9Qluw-11" value="" style="endArrow=classic;html=1;rounded=0;" edge="1" parent="1" source="GTTm0Ar-5-4vAVj9Qluw-3">
          <mxGeometry width="50" height="50" relative="1" as="geometry">
            <mxPoint x="310" y="280" as="sourcePoint" />
            <mxPoint x="650" y="420" as="targetPoint" />
          </mxGeometry>
        </mxCell>
        <mxCell id="GTTm0Ar-5-4vAVj9Qluw-12" value="" style="endArrow=classic;html=1;rounded=0;" edge="1" parent="1">
          <mxGeometry width="50" height="50" relative="1" as="geometry">
            <mxPoint x="190" y="252.5" as="sourcePoint" />
            <mxPoint x="193" y="387.5" as="targetPoint" />
          </mxGeometry>
        </mxCell>
        <mxCell id="GTTm0Ar-5-4vAVj9Qluw-14" value="" style="rounded=0;whiteSpace=wrap;html=1;" vertex="1" parent="1">
          <mxGeometry x="82" y="410" width="469" height="300" as="geometry" />
        </mxCell>
        <mxCell id="GTTm0Ar-5-4vAVj9Qluw-15" value="" style="rounded=0;whiteSpace=wrap;html=1;" vertex="1" parent="1">
          <mxGeometry x="82.5" y="410" width="469" height="50" as="geometry" />
        </mxCell>
        <mxCell id="GTTm0Ar-5-4vAVj9Qluw-16" value="" style="rounded=0;whiteSpace=wrap;html=1;" vertex="1" parent="1">
          <mxGeometry x="81.5" y="670" width="469" height="40" as="geometry" />
        </mxCell>
        <mxCell id="GTTm0Ar-5-4vAVj9Qluw-17" value="" style="rounded=1;whiteSpace=wrap;html=1;" vertex="1" parent="1">
          <mxGeometry x="81.5" y="470" width="98.5" height="40" as="geometry" />
        </mxCell>
        <mxCell id="GTTm0Ar-5-4vAVj9Qluw-18" value="" style="rounded=1;whiteSpace=wrap;html=1;" vertex="1" parent="1">
          <mxGeometry x="82.5" y="522" width="98.5" height="40" as="geometry" />
        </mxCell>
        <mxCell id="GTTm0Ar-5-4vAVj9Qluw-19" value="" style="rounded=1;whiteSpace=wrap;html=1;" vertex="1" parent="1">
          <mxGeometry x="81.5" y="572" width="98.5" height="40" as="geometry" />
        </mxCell>
        <mxCell id="GTTm0Ar-5-4vAVj9Qluw-20" value="" style="rounded=0;whiteSpace=wrap;html=1;" vertex="1" parent="1">
          <mxGeometry x="190" y="470" width="350" height="190" as="geometry" />
        </mxCell>
        <mxCell id="GTTm0Ar-5-4vAVj9Qluw-21" value="" style="rounded=0;whiteSpace=wrap;html=1;" vertex="1" parent="1">
          <mxGeometry x="611" y="45" width="469" height="300" as="geometry" />
        </mxCell>
        <mxCell id="GTTm0Ar-5-4vAVj9Qluw-22" value="" style="rounded=0;whiteSpace=wrap;html=1;" vertex="1" parent="1">
          <mxGeometry x="610" y="45" width="469" height="50" as="geometry" />
        </mxCell>
        <mxCell id="GTTm0Ar-5-4vAVj9Qluw-23" value="" style="rounded=0;whiteSpace=wrap;html=1;" vertex="1" parent="1">
          <mxGeometry x="610.5" y="305" width="469" height="40" as="geometry" />
        </mxCell>
        <mxCell id="GTTm0Ar-5-4vAVj9Qluw-24" value="" style="rounded=1;whiteSpace=wrap;html=1;" vertex="1" parent="1">
          <mxGeometry x="610.5" y="105" width="98.5" height="40" as="geometry" />
        </mxCell>
        <mxCell id="GTTm0Ar-5-4vAVj9Qluw-25" value="" style="rounded=1;whiteSpace=wrap;html=1;" vertex="1" parent="1">
          <mxGeometry x="611.5" y="157" width="98.5" height="40" as="geometry" />
        </mxCell>
        <mxCell id="GTTm0Ar-5-4vAVj9Qluw-26" value="" style="rounded=1;whiteSpace=wrap;html=1;" vertex="1" parent="1">
          <mxGeometry x="610.5" y="207" width="98.5" height="40" as="geometry" />
        </mxCell>
        <mxCell id="GTTm0Ar-5-4vAVj9Qluw-27" value="" style="rounded=0;whiteSpace=wrap;html=1;" vertex="1" parent="1">
          <mxGeometry x="719" y="105" width="350" height="190" as="geometry" />
        </mxCell>
        <mxCell id="GTTm0Ar-5-4vAVj9Qluw-28" value="" style="rounded=0;whiteSpace=wrap;html=1;" vertex="1" parent="1">
          <mxGeometry x="611.5" y="410" width="469" height="300" as="geometry" />
        </mxCell>
        <mxCell id="GTTm0Ar-5-4vAVj9Qluw-29" value="" style="rounded=0;whiteSpace=wrap;html=1;" vertex="1" parent="1">
          <mxGeometry x="610.5" y="410" width="469" height="50" as="geometry" />
        </mxCell>
        <mxCell id="GTTm0Ar-5-4vAVj9Qluw-30" value="" style="rounded=0;whiteSpace=wrap;html=1;" vertex="1" parent="1">
          <mxGeometry x="611" y="670" width="469" height="40" as="geometry" />
        </mxCell>
        <mxCell id="GTTm0Ar-5-4vAVj9Qluw-31" value="" style="rounded=1;whiteSpace=wrap;html=1;" vertex="1" parent="1">
          <mxGeometry x="611" y="470" width="98.5" height="40" as="geometry" />
        </mxCell>
        <mxCell id="GTTm0Ar-5-4vAVj9Qluw-32" value="" style="rounded=1;whiteSpace=wrap;html=1;" vertex="1" parent="1">
          <mxGeometry x="612" y="522" width="98.5" height="40" as="geometry" />
        </mxCell>
        <mxCell id="GTTm0Ar-5-4vAVj9Qluw-33" value="" style="rounded=1;whiteSpace=wrap;html=1;" vertex="1" parent="1">
          <mxGeometry x="611" y="572" width="98.5" height="40" as="geometry" />
        </mxCell>
        <mxCell id="GTTm0Ar-5-4vAVj9Qluw-34" value="" style="rounded=0;whiteSpace=wrap;html=1;" vertex="1" parent="1">
          <mxGeometry x="719.5" y="470" width="350" height="190" as="geometry" />
        </mxCell>
        <mxCell id="GTTm0Ar-5-4vAVj9Qluw-35" value="" style="rounded=0;whiteSpace=wrap;html=1;" vertex="1" parent="1">
          <mxGeometry x="200" y="480" width="110" height="30" as="geometry" />
        </mxCell>
        <mxCell id="GTTm0Ar-5-4vAVj9Qluw-36" value="" style="rounded=0;whiteSpace=wrap;html=1;" vertex="1" parent="1">
          <mxGeometry x="200" y="522" width="330" height="128" as="geometry" />
        </mxCell>
        <mxCell id="GTTm0Ar-5-4vAVj9Qluw-37" value="" style="rounded=0;whiteSpace=wrap;html=1;" vertex="1" parent="1">
          <mxGeometry x="730" y="120" width="120" height="30" as="geometry" />
        </mxCell>
        <mxCell id="GTTm0Ar-5-4vAVj9Qluw-38" value="" style="rounded=0;whiteSpace=wrap;html=1;" vertex="1" parent="1">
          <mxGeometry x="870" y="120" width="100" height="30" as="geometry" />
        </mxCell>
        <mxCell id="GTTm0Ar-5-4vAVj9Qluw-39" value="" style="rounded=0;whiteSpace=wrap;html=1;" vertex="1" parent="1">
          <mxGeometry x="784.5" y="162" width="120" height="30" as="geometry" />
        </mxCell>
        <mxCell id="GTTm0Ar-5-4vAVj9Qluw-40" value="" style="rounded=0;whiteSpace=wrap;html=1;" vertex="1" parent="1">
          <mxGeometry x="754" y="207" width="286" height="73" as="geometry" />
        </mxCell>
      </root>
    </mxGraphModel>
  </diagram>
</mxfile>
